<svg xmlns="http://www.w3.org/2000/svg" viewBox="0 0 38 57" width="100%" height="100%">
  <path d="M19 28.5c0-5.247-4.253-9.5-9.5-9.5S0 23.253 0 28.5 4.253 38 9.5 38H19v-9.5z" fill="#0ACF83"/>
  <path d="M19 9.5C19 4.253 14.747 0 9.5 0S0 4.253 0 9.5 4.253 19 9.5 19H19V9.5z" fill="#F24E1E"/>
  <path d="M38 9.5C38 4.253 33.747 0 28.5 0S19 4.253 19 9.5v9.5h9.5C33.747 19 38 14.747 38 9.5z" fill="#FF7262"/>
  <path d="M38 28.5c0-5.247-4.253-9.5-9.5-9.5H19v19h9.5c5.247 0 9.5-4.253 9.5-9.5z" fill="#A259FF"/>
  <path d="M19 47.5c0 5.247-4.253 9.5-9.5 9.5S0 52.747 0 47.5 4.253 38 9.5 38H19v9.5z" fill="#1ABC9C"/>
</svg>
